<svg xmlns="http://www.w3.org/2000/svg" width="920" height="334" viewBox="0 0 920 334" font-family="-apple-system,BlinkMacSystemFont,'Helvetica Neue',Arial,sans-serif">
<rect width="920" height="334" fill="#ffffff"/>
<g><text x="62" y="20" font-size="14" font-weight="600" fill="#111">총 처리량 (tokens/s)</text>
<line x1="62" y1="248.0" x2="446" y2="248.0" stroke="#e5e7eb" stroke-width="1"/>
<text x="54" y="252.0" font-size="11" fill="#6b7280" text-anchor="end">0</text>
<line x1="62" y1="194.5" x2="446" y2="194.5" stroke="#e5e7eb" stroke-width="1"/>
<text x="54" y="198.5" font-size="11" fill="#6b7280" text-anchor="end">2,000</text>
<line x1="62" y1="141.0" x2="446" y2="141.0" stroke="#e5e7eb" stroke-width="1"/>
<text x="54" y="145.0" font-size="11" fill="#6b7280" text-anchor="end">4,000</text>
<line x1="62" y1="87.5" x2="446" y2="87.5" stroke="#e5e7eb" stroke-width="1"/>
<text x="54" y="91.5" font-size="11" fill="#6b7280" text-anchor="end">6,000</text>
<line x1="62" y1="34.0" x2="446" y2="34.0" stroke="#e5e7eb" stroke-width="1"/>
<text x="54" y="38.0" font-size="11" fill="#6b7280" text-anchor="end">8,000</text>
<text x="16" y="141.0" font-size="11" fill="#6b7280" transform="rotate(-90 16 141.0)" text-anchor="middle">tokens/s</text>
<text x="62.0" y="268" font-size="11" fill="#374151" text-anchor="middle">1</text>
<text x="190.0" y="268" font-size="11" fill="#374151" text-anchor="middle">10</text>
<text x="318.0" y="268" font-size="11" fill="#374151" text-anchor="middle">100</text>
<text x="446.0" y="268" font-size="11" fill="#374151" text-anchor="middle">300</text>
<text x="254.0" y="288" font-size="11" fill="#6b7280" text-anchor="middle">concurrency</text>
<line x1="62" y1="248" x2="446" y2="248" stroke="#9ca3af" stroke-width="1"/>
<polyline points="62.0,245.9 190.0,239.6 318.0,194.1 446.0,142.2" fill="none" stroke="#6b7280" stroke-width="2.4"/>
<circle cx="62.0" cy="245.9" r="3.6" fill="#6b7280"/>
<circle cx="190.0" cy="239.6" r="3.6" fill="#6b7280"/>
<circle cx="318.0" cy="194.1" r="3.6" fill="#6b7280"/>
<circle cx="446.0" cy="142.2" r="3.6" fill="#6b7280"/>
<polyline points="62.0,244.9 190.0,235.1 318.0,164.2 446.0,103.3" fill="none" stroke="#2563eb" stroke-width="2.4"/>
<circle cx="62.0" cy="244.9" r="3.6" fill="#2563eb"/>
<circle cx="190.0" cy="235.1" r="3.6" fill="#2563eb"/>
<circle cx="318.0" cy="164.2" r="3.6" fill="#2563eb"/>
<circle cx="446.0" cy="103.3" r="3.6" fill="#2563eb"/>
<polyline points="62.0,242.9 190.0,227.6 318.0,137.4 446.0,75.6" fill="none" stroke="#dc2626" stroke-width="2.4"/>
<circle cx="62.0" cy="242.9" r="3.6" fill="#dc2626"/>
<circle cx="190.0" cy="227.6" r="3.6" fill="#dc2626"/>
<circle cx="318.0" cy="137.4" r="3.6" fill="#dc2626"/>
<circle cx="446.0" cy="75.6" r="3.6" fill="#dc2626"/>
<text x="446.0" y="67.6" font-size="11" fill="#dc2626" stroke="#ffffff" stroke-width="3.5" paint-order="stroke" text-anchor="end" font-weight="700">6,445</text>
<text x="446.0" y="67.6" font-size="11" fill="#dc2626" stroke="none" text-anchor="end" font-weight="700">6,445</text>
<text x="446.0" y="95.3" font-size="11" fill="#2563eb" stroke="#ffffff" stroke-width="3.5" paint-order="stroke" text-anchor="end" font-weight="700">5,408</text>
<text x="446.0" y="95.3" font-size="11" fill="#2563eb" stroke="none" text-anchor="end" font-weight="700">5,408</text>
<text x="446.0" y="134.2" font-size="11" fill="#6b7280" stroke="#ffffff" stroke-width="3.5" paint-order="stroke" text-anchor="end" font-weight="700">3,955</text>
<text x="446.0" y="134.2" font-size="11" fill="#6b7280" stroke="none" text-anchor="end" font-weight="700">3,955</text></g><g transform="translate(460,0)"><text x="62" y="20" font-size="14" font-weight="600" fill="#111">BF16 대비 배수</text>
<line x1="62" y1="248.0" x2="446" y2="248.0" stroke="#e5e7eb" stroke-width="1"/>
<text x="54" y="252.0" font-size="11" fill="#6b7280" text-anchor="end">0.00</text>
<line x1="62" y1="194.5" x2="446" y2="194.5" stroke="#e5e7eb" stroke-width="1"/>
<text x="54" y="198.5" font-size="11" fill="#6b7280" text-anchor="end">0.75</text>
<line x1="62" y1="141.0" x2="446" y2="141.0" stroke="#e5e7eb" stroke-width="1"/>
<text x="54" y="145.0" font-size="11" fill="#6b7280" text-anchor="end">1.50</text>
<line x1="62" y1="87.5" x2="446" y2="87.5" stroke="#e5e7eb" stroke-width="1"/>
<text x="54" y="91.5" font-size="11" fill="#6b7280" text-anchor="end">2.25</text>
<line x1="62" y1="34.0" x2="446" y2="34.0" stroke="#e5e7eb" stroke-width="1"/>
<text x="54" y="38.0" font-size="11" fill="#6b7280" text-anchor="end">3.00</text>
<text x="16" y="141.0" font-size="11" fill="#6b7280" transform="rotate(-90 16 141.0)" text-anchor="middle">x</text>
<text x="62.0" y="268" font-size="11" fill="#374151" text-anchor="middle">1</text>
<text x="190.0" y="268" font-size="11" fill="#374151" text-anchor="middle">10</text>
<text x="318.0" y="268" font-size="11" fill="#374151" text-anchor="middle">100</text>
<text x="446.0" y="268" font-size="11" fill="#374151" text-anchor="middle">300</text>
<text x="254.0" y="288" font-size="11" fill="#6b7280" text-anchor="middle">concurrency</text>
<line x1="62" y1="248" x2="446" y2="248" stroke="#9ca3af" stroke-width="1"/>
<polyline points="62.0,140.3 190.0,138.2 318.0,137.1 446.0,150.5" fill="none" stroke="#2563eb" stroke-width="2.4"/>
<circle cx="62.0" cy="140.3" r="3.6" fill="#2563eb"/>
<circle cx="190.0" cy="138.2" r="3.6" fill="#2563eb"/>
<circle cx="318.0" cy="137.1" r="3.6" fill="#2563eb"/>
<circle cx="446.0" cy="150.5" r="3.6" fill="#2563eb"/>
<polyline points="62.0,73.6 190.0,74.2 318.0,101.6 446.0,131.8" fill="none" stroke="#dc2626" stroke-width="2.4"/>
<circle cx="62.0" cy="73.6" r="3.6" fill="#dc2626"/>
<circle cx="190.0" cy="74.2" r="3.6" fill="#dc2626"/>
<circle cx="318.0" cy="101.6" r="3.6" fill="#dc2626"/>
<circle cx="446.0" cy="131.8" r="3.6" fill="#dc2626"/>
<text x="446.0" y="123.8" font-size="11" fill="#dc2626" stroke="#ffffff" stroke-width="3.5" paint-order="stroke" text-anchor="end" font-weight="700">1.63</text>
<text x="446.0" y="123.8" font-size="11" fill="#dc2626" stroke="none" text-anchor="end" font-weight="700">1.63</text>
<text x="446.0" y="142.5" font-size="11" fill="#2563eb" stroke="#ffffff" stroke-width="3.5" paint-order="stroke" text-anchor="end" font-weight="700">1.37</text>
<text x="446.0" y="142.5" font-size="11" fill="#2563eb" stroke="none" text-anchor="end" font-weight="700">1.37</text></g><g transform="translate(0,300)"><line x1="62" y1="16" x2="84" y2="16" stroke="#6b7280" stroke-width="2.6"/>
<circle cx="73" cy="16" r="3.4" fill="#6b7280"/>
<text x="90" y="20" font-size="11.5" fill="#374151">BF16</text>
<line x1="125.6" y1="16" x2="147.6" y2="16" stroke="#2563eb" stroke-width="2.6"/>
<circle cx="136.6" cy="16" r="3.4" fill="#2563eb"/>
<text x="153.6" y="20" font-size="11.5" fill="#374151">FP8-dynamic</text>
<line x1="241.0" y1="16" x2="263.0" y2="16" stroke="#dc2626" stroke-width="2.6"/>
<circle cx="252.0" cy="16" r="3.4" fill="#dc2626"/>
<text x="269.0" y="20" font-size="11.5" fill="#374151">GPTQ-Int4</text></g>
</svg>
